0
SECTION
2
HEADER
9
$INSUNITS
70
4
9
$ACADVER
1
AC1014
9
$HANDSEED
5
FFFF
0
ENDSEC
0
SECTION
2
TABLES
0
TABLE
2
VPORT
5
8
100
AcDbSymbolTable
0
ENDTAB
0
TABLE
2
LTYPE
5
5
100
AcDbSymbolTable
0
LTYPE
5
14
100
AcDbSymbolTableRecord
100
AcDbLinetypeTableRecord
2
BYBLOCK
70
0
0
LTYPE
5
15
100
AcDbSymbolTableRecord
100
AcDbLinetypeTableRecord
2
BYLAYER
70
0
0
ENDTAB
0
TABLE
2
LAYER
5
2
100
AcDbSymbolTable
70
2
0
LAYER
5
50
100
AcDbSymbolTableRecord
100
AcDbLayerTableRecord
2
0
70
0
6
CONTINUOUS
0
ENDTAB
0
TABLE
2
STYLE
5
3
100
AcDbSymbolTable
70
1
0
STYLE
5
11
100
AcDbSymbolTableRecord
100
AcDbTextStyleTableRecord
2
STANDARD
70
0
0
ENDTAB
0
TABLE
2
VIEW
5
6
100
AcDbSymbolTable
70
0
0
ENDTAB
0
TABLE
2
UCS
5
7
100
AcDbSymbolTable
70
0
0
ENDTAB
0
TABLE
2
APPID
5
9
100
AcDbSymbolTable
70
2
0
APPID
5
12
100
AcDbSymbolTableRecord
100
AcDbRegAppTableRecord
2
ACAD
70
0
0
ENDTAB
0
TABLE
2
DIMSTYLE
5
A
100
AcDbSymbolTable
70
1
0
ENDTAB
0
TABLE
2
BLOCK_RECORD
5
1
100
AcDbSymbolTable
70
1
0
BLOCK_RECORD
5
1F
100
AcDbSymbolTableRecord
100
AcDbBlockTableRecord
2
*MODEL_SPACE
0
BLOCK_RECORD
5
1B
100
AcDbSymbolTableRecord
100
AcDbBlockTableRecord
2
*PAPER_SPACE
0
ENDTAB
0
ENDSEC
0
SECTION
2
BLOCKS
0
BLOCK
5
20
100
AcDbEntity
100
AcDbBlockBegin
2
*MODEL_SPACE
0
ENDBLK
5
21
100
AcDbEntity
100
AcDbBlockEnd
0
BLOCK
5
1C
100
AcDbEntity
100
AcDbBlockBegin
2
*PAPER_SPACE
0
ENDBLK
5
1D
100
AcDbEntity
100
AcDbBlockEnd
0
ENDSEC
0
SECTION
2
ENTITIES
0
LWPOLYLINE
5
100
100
AcDbEntity
8
0
100
AcDbPolyline
90
4
70
1
43
0.0
10
-257.93448216552741
20
-342.20904769897447
10
-244.13458216552741
20
-342.20904769897447
10
-244.13458216552741
20
-328.4090476989744
10
-257.93448216552741
20
-328.4090476989744
0
LWPOLYLINE
5
101
100
AcDbEntity
8
0
100
AcDbPolyline
90
4
70
1
43
0.0
10
-244.13458216552741
20
-290.3090476989745
10
-257.93448216552741
20
-290.3090476989745
10
-257.93448216552741
20
-304.10904769897445
10
-244.13458216552741
20
-304.10904769897445
0
CIRCLE
5
102
100
AcDbEntity
8
0
100
AcDbCircle
10
-195.47228216552739
20
-363.88404769897443
30
0
40
2.4500000000000006
210
0
220
-0
230
1
0
CIRCLE
5
103
100
AcDbEntity
8
0
100
AcDbCircle
10
-289.92828216552738
20
-297.20904769897447
30
0
40
2.4500000000000006
210
0
220
-0
230
1
0
CIRCLE
5
104
100
AcDbEntity
8
0
100
AcDbCircle
10
-289.1344821655274
20
-354.35904769897439
30
0
40
2.4500000000000006
210
0
220
-0
230
1
0
LWPOLYLINE
5
105
100
AcDbEntity
8
0
100
AcDbPolyline
90
4
70
1
43
0.0
10
-238.88458216552738
20
-366.02154769897447
10
-225.08458216552739
20
-366.02154769897447
10
-225.08458216552742
20
-352.2215476989744
10
-238.88458216552743
20
-352.22154769897452
0
LWPOLYLINE
5
106
100
AcDbEntity
8
0
100
AcDbPolyline
90
4
70
1
43
0.0
10
-206.0342821655274
20
-304.10904769897445
10
-206.0342821655274
20
-290.3090476989745
10
-219.83458216552742
20
-290.3090476989745
10
-219.83458216552737
20
-304.10904769897445
0
LWPOLYLINE
5
107
100
AcDbEntity
8
0
100
AcDbPolyline
90
4
70
1
43
0.0
10
-219.83458216552742
20
-366.50904769897443
10
-219.83458216552742
20
-380.30904769897438
10
-206.0342821655274
20
-380.30904769897438
10
-206.03428216552743
20
-366.50904769897443
0
LWPOLYLINE
5
108
100
AcDbEntity
8
0
100
AcDbPolyline
90
4
70
1
43
0.0
10
-225.08458216552742
20
-314.12204769897443
10
-238.88458216552743
20
-314.12204769897448
10
-238.88458216552738
20
-327.92154769897445
10
-225.08458216552739
20
-327.92154769897445
0
LWPOLYLINE
5
109
100
AcDbEntity
8
0
100
AcDbPolyline
90
4
70
1
43
0.0
10
-186.98428216552742
20
-323.1590476989744
10
-186.98428216552742
20
-309.35904769897445
10
-200.7842821655274
20
-309.35904769897445
10
-200.7842821655274
20
-323.1590476989744
0
LWPOLYLINE
5
110
100
AcDbEntity
8
0
100
AcDbPolyline
90
4
70
1
43
0.0
10
-181.73428216552742
20
-278.40304769897449
10
-181.73428216552742
20
-292.20304769897444
10
-167.93428216552741
20
-292.20304769897444
10
-167.93428216552741
20
-278.40304769897449
0
LWPOLYLINE
5
111
100
AcDbEntity
8
0
100
AcDbPolyline
90
4
70
1
43
0.0
10
-206.0342821655274
20
-342.20904769897447
10
-206.0342821655274
20
-328.4090476989744
10
-219.83458216552742
20
-328.4090476989744
10
-219.83458216552737
20
-342.20904769897447
0
LWPOLYLINE
5
112
100
AcDbEntity
8
0
100
AcDbPolyline
90
4
70
1
43
0.0
10
-219.83458216552742
20
-309.35904769897445
10
-219.83458216552742
20
-323.1590476989744
10
-206.0342821655274
20
-323.1590476989744
10
-206.03428216552743
20
-309.35904769897445
0
LWPOLYLINE
5
113
100
AcDbEntity
8
0
100
AcDbPolyline
90
4
70
1
43
0.0
10
-238.88458216552738
20
-308.87204769897443
10
-225.08458216552739
20
-308.87204769897443
10
-225.08458216552739
20
-295.07204769897447
10
-238.88458216552743
20
-295.07204769897447
0
LWPOLYLINE
5
114
100
AcDbEntity
8
0
100
AcDbPolyline
90
4
70
1
43
0.0
10
-186.98428216552742
20
-299.34704769897445
10
-186.98428216552742
20
-285.54704769897444
10
-200.7842821655274
20
-285.5470476989745
10
-200.7842821655274
20
-299.34704769897445
0
LWPOLYLINE
5
115
100
AcDbEntity
8
0
100
AcDbPolyline
90
4
70
1
43
0.0
10
-276.9845821655274
20
-299.34704769897445
10
-263.18448216552736
20
-299.34704769897445
10
-263.18448216552736
20
-285.54704769897444
10
-276.9845821655274
20
-285.5470476989745
0
LWPOLYLINE
5
116
100
AcDbEntity
8
0
100
AcDbPolyline
90
4
70
1
43
0.0
10
-296.03458216552735
20
-294.58404769897447
10
-282.23458216552734
20
-294.58404769897447
10
-282.2345821655274
20
-280.78404769897452
10
-296.03458216552735
20
-280.78404769897446
0
LWPOLYLINE
5
117
100
AcDbEntity
8
0
100
AcDbPolyline
90
4
70
1
43
0.0
10
-225.08458216552742
20
-333.17154769897445
10
-238.88458216552743
20
-333.17154769897445
10
-238.88458216552738
20
-346.97154769897446
10
-225.08458216552739
20
-346.9715476989744
0
LWPOLYLINE
5
118
100
AcDbEntity
8
0
100
AcDbPolyline
90
4
70
1
43
0.0
10
-263.18448216552736
20
-361.74654769897444
10
-276.9845821655274
20
-361.74654769897444
10
-276.9845821655274
20
-375.54654769897445
10
-263.18448216552736
20
-375.54654769897439
0
LWPOLYLINE
5
119
100
AcDbEntity
8
0
100
AcDbPolyline
90
4
70
1
43
0.0
10
-282.2345821655274
20
-299.83404769897447
10
-296.03458216552735
20
-299.83404769897447
10
-296.03458216552735
20
-313.63404769897448
10
-282.23458216552734
20
-313.63404769897448
0
LWPOLYLINE
5
120
100
AcDbEntity
8
0
100
AcDbPolyline
90
4
70
1
43
0.0
10
-200.7842821655274
20
-328.4090476989744
10
-200.7842821655274
20
-342.20904769897447
10
-186.98428216552742
20
-342.20904769897447
10
-186.98428216552742
20
-328.4090476989744
0
LWPOLYLINE
5
121
100
AcDbEntity
8
0
100
AcDbPolyline
90
4
70
1
43
0.0
10
-263.18448216552736
20
-323.64654769897442
10
-276.9845821655274
20
-323.64654769897442
10
-276.9845821655274
20
-337.44654769897443
10
-263.18448216552736
20
-337.44654769897443
0
LWPOLYLINE
5
122
100
AcDbEntity
8
0
100
AcDbPolyline
90
4
70
1
43
0.0
10
-282.2345821655274
20
-318.88404769897443
10
-296.03458216552735
20
-318.88404769897443
10
-296.03458216552735
20
-332.68404769897438
10
-282.23458216552734
20
-332.68404769897444
0
LWPOLYLINE
5
123
100
AcDbEntity
8
0
100
AcDbPolyline
90
4
70
1
43
0.0
10
-276.9845821655274
20
-356.49654769897444
10
-263.18448216552736
20
-356.49654769897444
10
-263.18448216552736
20
-342.69654769897443
10
-276.9845821655274
20
-342.69654769897448
0
LWPOLYLINE
5
124
100
AcDbEntity
8
0
100
AcDbPolyline
90
4
70
1
43
0.0
10
-238.88458216552738
20
-385.07154769897448
10
-225.08458216552739
20
-385.07154769897448
10
-225.08458216552742
20
-371.27154769897436
10
-238.88458216552743
20
-371.27154769897447
0
LWPOLYLINE
5
125
100
AcDbEntity
8
0
100
AcDbPolyline
90
4
70
1
43
0.0
10
-244.13458216552741
20
-309.35904769897445
10
-257.93448216552741
20
-309.35904769897445
10
-257.93448216552741
20
-323.1590476989744
10
-244.13458216552741
20
-323.1590476989744
0
LWPOLYLINE
5
126
100
AcDbEntity
8
0
100
AcDbPolyline
90
4
70
1
43
0.0
10
-296.03458216552735
20
-351.73404769897439
10
-282.2345821655274
20
-351.73404769897439
10
-282.2345821655274
20
-337.93404769897444
10
-296.03458216552735
20
-337.93404769897444
0
LWPOLYLINE
5
127
100
AcDbEntity
8
0
100
AcDbPolyline
90
4
70
1
43
0.0
10
-206.0342821655274
20
-361.25904769897437
10
-206.0342821655274
20
-347.45904769897442
10
-219.83458216552742
20
-347.45904769897442
10
-219.83458216552737
20
-361.25904769897437
0
LWPOLYLINE
5
128
100
AcDbEntity
8
0
100
AcDbPolyline
90
4
70
1
43
0.0
10
-257.93448216552741
20
-361.25904769897437
10
-244.13458216552741
20
-361.25904769897437
10
-244.13458216552741
20
-347.45904769897442
10
-257.93448216552741
20
-347.45904769897442
0
LWPOLYLINE
5
129
100
AcDbEntity
8
0
100
AcDbPolyline
90
4
70
1
43
0.0
10
-263.18448216552736
20
-304.59704769897445
10
-276.9845821655274
20
-304.59704769897445
10
-276.9845821655274
20
-318.39654769897447
10
-263.18448216552736
20
-318.39654769897447
0
LWPOLYLINE
5
130
100
AcDbEntity
8
0
100
AcDbPolyline
90
4
70
1
43
0.0
10
-244.13458216552741
20
-366.50904769897443
10
-257.93448216552741
20
-366.50904769897443
10
-257.93448216552741
20
-380.30904769897438
10
-244.13458216552741
20
-380.30904769897438
0
LWPOLYLINE
5
131
100
AcDbEntity
8
0
100
AcDbPolyline
90
4
70
1
43
0.0
10
-186.98428216552742
20
-361.25904769897437
10
-186.98428216552742
20
-347.45904769897442
10
-200.7842821655274
20
-347.45904769897442
10
-200.7842821655274
20
-361.25904769897437
0
LWPOLYLINE
5
132
100
AcDbEntity
8
0
100
AcDbPolyline
90
4
70
1
43
0.0
10
-200.7842821655274
20
-366.50904769897443
10
-200.7842821655274
20
-380.30904769897438
10
-186.98428216552742
20
-380.30904769897438
10
-186.98428216552742
20
-366.50904769897443
0
CIRCLE
5
133
100
AcDbEntity
8
0
100
AcDbCircle
10
-184.35928216552739
20
-286.82804769897444
30
0
40
2.4500000000000006
210
0
220
-0
230
1
0
LWPOLYLINE
5
134
100
AcDbEntity
8
0
100
AcDbPolyline
90
4
70
1
43
0.0
10
-282.2345821655274
20
-356.98404769897445
10
-296.03458216552735
20
-356.98404769897445
10
-296.03458216552735
20
-370.7840476989744
10
-282.2345821655274
20
-370.7840476989744
0
LWPOLYLINE
5
135
100
AcDbEntity
8
0
100
AcDbPolyline
90
53
70
1
43
0.0
10
-184.36253216613272
20
-277.37207869892688
10
-184.36196732544889
20
-265.10880199252802
42
-0.29100007806516637
10
-183.1340605135855
20
-263.87814894179701
10
-166.57840337024959
20
-263.87794790584212
42
-0.33848117986392717
10
-165.31297382300775
20
-265.38503345351216
10
-165.31298219122178
20
-305.19524468787802
42
-0.3903864523904233
10
-166.87262857224735
20
-306.73998554706975
10
-183.56828216552739
20
-306.74129669897445
42
0.41421356237309503
10
-184.36203316552738
20
-307.53504769897449
10
-184.36298255383599
20
-381.39575259638264
42
-0.39038655295648506
10
-185.92263704898693
20
-382.94048585415703
10
-221.6694821655274
20
-382.94039769897444
42
0.41421356237309503
10
-222.46323216552742
20
-383.73414769897443
10
-222.46328219122171
20
-386.15814468787789
42
-0.39038645239045483
10
-224.02292857224737
20
-387.70288554706974
10
-239.99116990889775
20
-387.70284774940728
42
-0.3414042927959316
10
-241.5131550986037
20
-386.43424861643507
10
-241.5131321655274
20
-383.73414769897443
42
0.41421356237309503
10
-242.30688216552738
20
-382.94039769897438
10
-259.04126990889773
20
-382.94044774940738
42
-0.34140429279593298
10
-260.56325509860369
20
-381.67184861643511
10
-260.56323216552744
20
-378.97154769897446
42
0.41421356237309503
10
-261.35698216552737
20
-378.17779769897442
10
-278.09125860684179
20
-378.17784816606684
42
-0.34140136965947326
10
-279.61324898445844
20
-376.90927622178208
10
-279.61323216552739
20
-374.20914769897445
42
0.41421356237309503
10
-280.40698216552738
20
-373.4153976989744
10
-297.14116990889772
20
-373.41544774940729
42
-0.34140429279595275
10
-298.66315509860374
20
-372.14684861643514
10
-298.66317955036675
20
-279.39685720396886
42
-0.29100007806514999
10
-297.43531569714679
20
-278.16616129195415
10
-280.87870337024958
20
-278.16594790584202
42
-0.33848117986391096
10
-279.61327382300772
20
-279.67303345351212
10
-279.61323216541371
20
-282.13506112929349
42
0.41421678571966464
10
-278.81945999984589
20
-282.92879769866499
10
-262.15328291058546
20
-282.92879769866499
10
-261.82864752302271
20
-282.92793805222362
42
-0.33848142302528123
10
-260.56317582587792
20
-284.43498967408544
10
-260.56323216504381
20
-286.89701999187258
42
0.41421509595922407
10
-259.76950571656397
20
-287.69079769862509
10
-242.77856197727476
20
-287.69095714472917
42
-0.33848147165758469
10
-241.51317180841164
20
-289.19807751544141
10
-241.51323216528883
20
-291.66002823957518
42
0.41422074289662486
10
-240.71948216552738
20
-292.45379769897448
10
-223.25698216552738
20
-292.45379769897443
42
0.41421356237309503
10
-222.46323216552742
20
-291.66004769897444
10
-222.46327955036679
20
-288.9218572039689
42
-0.29100007806514544
10
-221.23541569714686
20
-287.69116129195413
10
-204.20626521798707
20
-287.69079769879352
42
0.41420730875586742
10
-203.41253216552741
20
-286.89704769897452
10
-203.41300399442079
20
-279.39696762813077
42
-0.29100007806514772
10
-202.18522606297608
20
-278.16618599804718
10
-185.15631264333945
20
-278.16579769838933
42
0.41421336970368516
0
ENDSEC
0
SECTION
2
OBJECTS
0
DICTIONARY
5
C
100
AcDbDictionary
3
ACAD_GROUP
350
D
3
ACAD_MLINESTYLE
350
17
0
DICTIONARY
5
D
100
AcDbDictionary
0
DICTIONARY
5
1A
330
C
100
AcDbDictionary
0
DICTIONARY
5
17
100
AcDbDictionary
0
ENDSEC
0
EOF
