0
SECTION
2
HEADER
9
$INSUNITS
70
4
9
$ACADVER
1
AC1014
9
$HANDSEED
5
FFFF
0
ENDSEC
0
SECTION
2
TABLES
0
TABLE
2
VPORT
5
8
100
AcDbSymbolTable
0
ENDTAB
0
TABLE
2
LTYPE
5
5
100
AcDbSymbolTable
0
LTYPE
5
14
100
AcDbSymbolTableRecord
100
AcDbLinetypeTableRecord
2
BYBLOCK
70
0
0
LTYPE
5
15
100
AcDbSymbolTableRecord
100
AcDbLinetypeTableRecord
2
BYLAYER
70
0
0
ENDTAB
0
TABLE
2
LAYER
5
2
100
AcDbSymbolTable
70
2
0
LAYER
5
50
100
AcDbSymbolTableRecord
100
AcDbLayerTableRecord
2
0
70
0
6
CONTINUOUS
0
ENDTAB
0
TABLE
2
STYLE
5
3
100
AcDbSymbolTable
70
1
0
STYLE
5
11
100
AcDbSymbolTableRecord
100
AcDbTextStyleTableRecord
2
STANDARD
70
0
0
ENDTAB
0
TABLE
2
VIEW
5
6
100
AcDbSymbolTable
70
0
0
ENDTAB
0
TABLE
2
UCS
5
7
100
AcDbSymbolTable
70
0
0
ENDTAB
0
TABLE
2
APPID
5
9
100
AcDbSymbolTable
70
2
0
APPID
5
12
100
AcDbSymbolTableRecord
100
AcDbRegAppTableRecord
2
ACAD
70
0
0
ENDTAB
0
TABLE
2
DIMSTYLE
5
A
100
AcDbSymbolTable
70
1
0
ENDTAB
0
TABLE
2
BLOCK_RECORD
5
1
100
AcDbSymbolTable
70
1
0
BLOCK_RECORD
5
1F
100
AcDbSymbolTableRecord
100
AcDbBlockTableRecord
2
*MODEL_SPACE
0
BLOCK_RECORD
5
1B
100
AcDbSymbolTableRecord
100
AcDbBlockTableRecord
2
*PAPER_SPACE
0
ENDTAB
0
ENDSEC
0
SECTION
2
BLOCKS
0
BLOCK
5
20
100
AcDbEntity
100
AcDbBlockBegin
2
*MODEL_SPACE
0
ENDBLK
5
21
100
AcDbEntity
100
AcDbBlockEnd
0
BLOCK
5
1C
100
AcDbEntity
100
AcDbBlockBegin
2
*PAPER_SPACE
0
ENDBLK
5
1D
100
AcDbEntity
100
AcDbBlockEnd
0
ENDSEC
0
SECTION
2
ENTITIES
0
LWPOLYLINE
5
100
100
AcDbEntity
8
0
100
AcDbPolyline
90
4
70
1
43
0.0
10
-60.049454089355415
20
-342.22394409179685
10
-46.249554089355421
20
-342.22394409179685
10
-46.249554089355428
20
-328.42394409179684
10
-60.049454089355415
20
-328.42394409179684
0
LWPOLYLINE
5
101
100
AcDbEntity
8
0
100
AcDbPolyline
90
4
70
1
43
0.0
10
-46.249554089355428
20
-290.32394409179688
10
-60.049454089355422
20
-290.32394409179688
10
-60.049454089355422
20
-304.12394409179683
10
-46.249554089355428
20
-304.12394409179689
0
CIRCLE
5
102
100
AcDbEntity
8
0
100
AcDbCircle
10
-108.71175408935541
20
-363.89894409179681
30
0
40
2.4500000000000006
210
-4.9303806576313238e-32
220
1.2325951644078303e-32
230
1
0
CIRCLE
5
103
100
AcDbEntity
8
0
100
AcDbCircle
10
-14.255754089355428
20
-297.22394409179685
30
0
40
2.4500000000000006
210
-4.9303806576313238e-32
220
1.2325951644078303e-32
230
1
0
CIRCLE
5
104
100
AcDbEntity
8
0
100
AcDbCircle
10
-15.049554089355425
20
-354.37394409179683
30
0
40
2.4500000000000006
210
-4.9303806576313238e-32
220
1.2325951644078303e-32
230
1
0
LWPOLYLINE
5
105
100
AcDbEntity
8
0
100
AcDbPolyline
90
4
70
1
43
0.0
10
-79.099454089355419
20
-366.03644409179685
10
-65.299454089355407
20
-366.03644409179685
10
-65.299454089355407
20
-352.23644409179684
10
-79.099454089355405
20
-352.23644409179684
0
LWPOLYLINE
5
106
100
AcDbEntity
8
0
100
AcDbPolyline
90
4
70
1
43
0.0
10
-98.149754089355412
20
-290.32394409179682
10
-98.149754089355412
20
-304.12394409179683
10
-84.349454089355419
20
-304.12394409179689
10
-84.349454089355419
20
-290.32394409179688
0
LWPOLYLINE
5
107
100
AcDbEntity
8
0
100
AcDbPolyline
90
4
70
1
43
0.0
10
-84.349454089355419
20
-380.32394409179688
10
-84.349454089355419
20
-366.52394409179686
10
-98.149754089355397
20
-366.52394409179681
10
-98.149754089355397
20
-380.32394409179682
0
LWPOLYLINE
5
108
100
AcDbEntity
8
0
100
AcDbPolyline
90
4
70
1
43
0.0
10
-65.299454089355407
20
-314.13694409179686
10
-79.099454089355419
20
-314.13694409179686
10
-79.099454089355419
20
-327.93644409179683
10
-65.299454089355407
20
-327.93644409179683
0
LWPOLYLINE
5
109
100
AcDbEntity
8
0
100
AcDbPolyline
90
4
70
1
43
0.0
10
-117.19975408935539
20
-309.37394409179683
10
-117.19975408935539
20
-323.17394409179684
10
-103.39975408935543
20
-323.17394409179684
10
-103.39975408935541
20
-309.37394409179683
0
LWPOLYLINE
5
110
100
AcDbEntity
8
0
100
AcDbPolyline
90
4
70
1
43
0.0
10
-122.44975408935542
20
-292.21794409179688
10
-122.44975408935542
20
-278.41794409179681
10
-136.24975408935541
20
-278.41794409179681
10
-136.24975408935543
20
-292.21794409179688
0
LWPOLYLINE
5
111
100
AcDbEntity
8
0
100
AcDbPolyline
90
4
70
1
43
0.0
10
-98.149754089355397
20
-328.42394409179684
10
-98.149754089355397
20
-342.22394409179685
10
-84.349454089355419
20
-342.22394409179685
10
-84.349454089355419
20
-328.42394409179684
0
LWPOLYLINE
5
112
100
AcDbEntity
8
0
100
AcDbPolyline
90
4
70
1
43
0.0
10
-84.349454089355419
20
-323.17394409179684
10
-84.349454089355419
20
-309.37394409179683
10
-98.149754089355412
20
-309.37394409179683
10
-98.149754089355412
20
-323.17394409179684
0
LWPOLYLINE
5
113
100
AcDbEntity
8
0
100
AcDbPolyline
90
4
70
1
43
0.0
10
-79.099454089355419
20
-308.88694409179686
10
-65.299454089355407
20
-308.88694409179686
10
-65.299454089355407
20
-295.08694409179679
10
-79.099454089355419
20
-295.08694409179685
0
LWPOLYLINE
5
114
100
AcDbEntity
8
0
100
AcDbPolyline
90
4
70
1
43
0.0
10
-117.19975408935541
20
-285.56194409179687
10
-117.19975408935541
20
-299.36194409179683
10
-103.39975408935543
20
-299.36194409179683
10
-103.39975408935543
20
-285.56194409179687
0
LWPOLYLINE
5
115
100
AcDbEntity
8
0
100
AcDbPolyline
90
4
70
1
43
0.0
10
-40.999554089355421
20
-299.36194409179683
10
-27.199454089355427
20
-299.36194409179683
10
-27.199454089355434
20
-285.56194409179687
10
-40.999554089355428
20
-285.56194409179687
0
LWPOLYLINE
5
116
100
AcDbEntity
8
0
100
AcDbPolyline
90
4
70
1
43
0.0
10
-21.949454089355438
20
-294.59894409179685
10
-8.1494540893554319
20
-294.59894409179685
10
-8.1494540893554284
20
-280.7989440917969
10
-21.949454089355434
20
-280.7989440917969
0
LWPOLYLINE
5
117
100
AcDbEntity
8
0
100
AcDbPolyline
90
4
70
1
43
0.0
10
-65.299454089355407
20
-333.18644409179683
10
-79.099454089355419
20
-333.18644409179683
10
-79.099454089355419
20
-346.98644409179684
10
-65.299454089355407
20
-346.98644409179678
0
LWPOLYLINE
5
118
100
AcDbEntity
8
0
100
AcDbPolyline
90
4
70
1
43
0.0
10
-27.199454089355424
20
-361.76144409179688
10
-40.999554089355428
20
-361.76144409179688
10
-40.999554089355414
20
-375.56144409179689
10
-27.19945408935542
20
-375.56144409179683
0
LWPOLYLINE
5
119
100
AcDbEntity
8
0
100
AcDbPolyline
90
4
70
1
43
0.0
10
-8.1494540893554284
20
-299.84894409179685
10
-21.949454089355434
20
-299.84894409179685
10
-21.949454089355438
20
-313.64894409179681
10
-8.1494540893554301
20
-313.64894409179686
0
LWPOLYLINE
5
120
100
AcDbEntity
8
0
100
AcDbPolyline
90
4
70
1
43
0.0
10
-103.39975408935541
20
-342.22394409179685
10
-103.39975408935541
20
-328.42394409179684
10
-117.19975408935539
20
-328.42394409179684
10
-117.19975408935539
20
-342.22394409179685
0
LWPOLYLINE
5
121
100
AcDbEntity
8
0
100
AcDbPolyline
90
4
70
1
43
0.0
10
-27.199454089355424
20
-323.66144409179691
10
-40.999554089355428
20
-323.66144409179691
10
-40.999554089355414
20
-337.46144409179686
10
-27.19945408935542
20
-337.46144409179692
0
LWPOLYLINE
5
122
100
AcDbEntity
8
0
100
AcDbPolyline
90
4
70
1
43
0.0
10
-8.1494540893554284
20
-318.89894409179686
10
-21.949454089355434
20
-318.89894409179686
10
-21.949454089355438
20
-332.69894409179676
10
-8.1494540893554301
20
-332.69894409179688
0
LWPOLYLINE
5
123
100
AcDbEntity
8
0
100
AcDbPolyline
90
4
70
1
43
0.0
10
-40.999554089355414
20
-356.51144409179688
10
-27.19945408935542
20
-356.51144409179688
10
-27.199454089355424
20
-342.71144409179681
10
-40.999554089355421
20
-342.71144409179681
0
LWPOLYLINE
5
124
100
AcDbEntity
8
0
100
AcDbPolyline
90
4
70
1
43
0.0
10
-79.099454089355419
20
-385.08644409179686
10
-65.299454089355407
20
-385.08644409179686
10
-65.299454089355407
20
-371.28644409179685
10
-79.099454089355405
20
-371.28644409179685
0
LWPOLYLINE
5
125
100
AcDbEntity
8
0
100
AcDbPolyline
90
4
70
1
43
0.0
10
-46.249554089355428
20
-309.37394409179683
10
-60.049454089355422
20
-309.37394409179683
10
-60.049454089355415
20
-323.17394409179684
10
-46.249554089355428
20
-323.17394409179684
0
LWPOLYLINE
5
126
100
AcDbEntity
8
0
100
AcDbPolyline
90
4
70
1
43
0.0
10
-21.94945408935542
20
-351.74894409179677
10
-8.1494540893554142
20
-351.74894409179677
10
-8.1494540893554195
20
-337.94894409179682
10
-21.949454089355424
20
-337.94894409179676
0
LWPOLYLINE
5
127
100
AcDbEntity
8
0
100
AcDbPolyline
90
4
70
1
43
0.0
10
-98.149754089355397
20
-347.47394409179674
10
-98.149754089355397
20
-361.27394409179681
10
-84.349454089355419
20
-361.27394409179686
10
-84.349454089355405
20
-347.47394409179685
0
LWPOLYLINE
5
128
100
AcDbEntity
8
0
100
AcDbPolyline
90
4
70
1
43
0.0
10
-60.049454089355415
20
-361.27394409179681
10
-46.249554089355421
20
-361.27394409179681
10
-46.249554089355421
20
-347.47394409179685
10
-60.049454089355415
20
-347.47394409179674
0
LWPOLYLINE
5
129
100
AcDbEntity
8
0
100
AcDbPolyline
90
4
70
1
43
0.0
10
-27.199454089355434
20
-304.61194409179683
10
-40.999554089355428
20
-304.61194409179683
10
-40.999554089355421
20
-318.41144409179685
10
-27.199454089355427
20
-318.41144409179685
0
LWPOLYLINE
5
130
100
AcDbEntity
8
0
100
AcDbPolyline
90
4
70
1
43
0.0
10
-46.249554089355414
20
-366.52394409179686
10
-60.049454089355407
20
-366.52394409179686
10
-60.049454089355415
20
-380.32394409179682
10
-46.249554089355421
20
-380.32394409179688
0
LWPOLYLINE
5
131
100
AcDbEntity
8
0
100
AcDbPolyline
90
4
70
1
43
0.0
10
-117.19975408935539
20
-347.47394409179674
10
-117.19975408935539
20
-361.27394409179681
10
-103.39975408935541
20
-361.27394409179686
10
-103.39975408935541
20
-347.47394409179685
0
LWPOLYLINE
5
132
100
AcDbEntity
8
0
100
AcDbPolyline
90
4
70
1
43
0.0
10
-103.39975408935541
20
-380.32394409179688
10
-103.39975408935541
20
-366.52394409179686
10
-117.19975408935539
20
-366.52394409179681
10
-117.19975408935539
20
-380.32394409179682
0
CIRCLE
5
133
100
AcDbEntity
8
0
100
AcDbCircle
10
-119.82475408935541
20
-286.84294409179688
30
0
40
2.4500000000000006
210
-4.9303806576313238e-32
220
1.2325951644078303e-32
230
1
0
LWPOLYLINE
5
134
100
AcDbEntity
8
0
100
AcDbPolyline
90
4
70
1
43
0.0
10
-8.1494540893554195
20
-356.99894409179683
10
-21.949454089355424
20
-356.99894409179683
10
-21.94945408935542
20
-370.79894409179678
10
-8.1494540893554124
20
-370.7989440917969
0
LWPOLYLINE
5
135
100
AcDbEntity
8
0
100
AcDbPolyline
90
53
70
1
43
0.0
10
-119.82206892943395
20
-265.12369838535039
10
-119.82150408875007
20
-277.38697509174921
42
0.41421336970369832
10
-119.02772361154337
20
-278.18069409121171
10
-101.99881019190673
20
-278.18108239086951
42
-0.29100007806516254
10
-100.77103226046198
20
-279.41186402095309
10
-100.7715040893554
20
-286.91194409179684
42
0.41420730875589218
10
-99.977771036895746
20
-287.70569409143502
10
-82.948620557735993
20
-287.70605768477645
42
-0.29100007806516037
10
-81.720756704516035
20
-288.93675359679128
10
-81.720804089355426
20
-291.67494409179687
42
0.41421356237310819
10
-80.927054089355423
20
-292.46869409179686
10
-63.46455408935541
20
-292.46869409179686
42
0.41422074289660737
10
-62.670804089832487
20
-291.67492463239768
10
-62.670864446471157
20
-289.21297390826379
42
-0.33848147165756526
10
-61.40547427760805
20
-287.70585353755155
10
-44.414530538318857
20
-287.70569409144747
42
0.41421509595922407
10
-43.620804089839005
20
-286.91191638469496
10
-43.620860429004864
20
-284.44988606690782
42
-0.33848142302529444
10
-42.355388731860103
20
-282.94283444504595
10
-42.030753344297352
20
-282.94369409148737
10
-25.36457625503693
20
-282.94369409148737
42
0.41421678571967208
10
-24.570804089597441
20
-282.14995752211587
10
-24.570762431875046
20
-279.6879298463345
42
-0.33848117986392467
10
-23.305332884633209
20
-278.18084429866445
10
-6.748720557736001
20
-278.18105768477653
42
-0.29100007806516615
10
-5.5208567045160493
20
-279.4117535967913
10
-5.5208811562790885
20
-372.16174500925752
42
-0.34140429279594103
10
-7.0428663459850931
20
-373.43034414222973
10
-23.777054089355424
20
-373.43029409179684
42
0.41421356237316553
10
-24.570804089355423
20
-374.22404409179694
10
-24.570787270424329
20
-376.92417261460446
42
-0.34140136965945189
10
-26.092777648040986
20
-378.19274455888933
10
-42.827054089355421
20
-378.19269409179691
42
0.41421356237314094
10
-43.62080408935541
20
-378.9864440917969
10
-43.620781156279094
20
-381.68674500925755
42
-0.34140429279593859
10
-45.142766345985088
20
-382.95534414222971
10
-61.877154089355422
20
-382.95529409179687
42
0.41421356237313761
10
-62.670904089355417
20
-383.74904409179686
10
-62.67088115627908
20
-386.44914500925751
42
-0.34140429279593859
10
-64.192866345985081
20
-387.71774414222966
10
-80.16110768263546
20
-387.71778193989212
42
-0.39038645239041697
10
-81.720754063661062
20
-386.17304108070044
10
-81.720804089355397
20
-383.74904409179686
42
0.41421356237310819
10
-82.5145540893554
20
-382.95529409179687
10
-118.26139920589594
20
-382.95538224697941
42
-0.39038655295642627
10
-119.82105370104684
20
-381.41064898920519
10
-119.82200308935543
20
-307.54994409179687
42
0.41421356237310819
10
-120.61575408935545
20
-306.75619309179689
10
-137.31140768263546
20
-306.75488193989219
42
-0.39038645239042946
10
-138.87105406366106
20
-305.21014108070045
10
-138.87106243187509
20
-265.39992984633454
42
-0.33848117986392384
10
-137.60563288463322
20
-263.89284429866444
10
-121.04997574129739
20
-263.89304533461939
42
-0.29100007806516143
0
ENDSEC
0
SECTION
2
OBJECTS
0
DICTIONARY
5
C
100
AcDbDictionary
3
ACAD_GROUP
350
D
3
ACAD_MLINESTYLE
350
17
0
DICTIONARY
5
D
100
AcDbDictionary
0
DICTIONARY
5
1A
330
C
100
AcDbDictionary
0
DICTIONARY
5
17
100
AcDbDictionary
0
ENDSEC
0
EOF
